<mxfile host="app.diagrams.net" modified="2023-11-15T19:41:11.647Z" agent="Mozilla/5.0 (Macintosh; Intel Mac OS X 10_15_7) AppleWebKit/537.36 (KHTML, like Gecko) Chrome/119.0.0.0 Safari/537.36" version="22.1.2" etag="nMQcMSLAYt7u_2r2bOCP" type="github">
  <diagram name="Page-1" id="S-iYLgF2X6QLDgR2Bo4O">
    <mxGraphModel>
      <root>
        <mxCell id="0" />
        <mxCell id="1" parent="0" />
      </root>
    </mxGraphModel>
  </diagram>
</mxfile>
